<svg id="svg" xmlns="http://www.w3.org/2000/svg" xmlns:xlink="http://www.w3.org/1999/xlink" width="400" height="400" viewBox="0, 0, 400,400"><g id="svgg"><path id="path0" d="M63.200 6.537 L 63.200 13.073 52.900 13.346 C 41.600 13.645,40.966 13.723,40.674 14.837 C 40.565 15.257,40.211 15.600,39.887 15.600 C 38.993 15.600,38.816 17.245,38.534 28.204 L 38.275 38.275 28.204 38.534 C 16.886 38.825,15.756 38.959,15.473 40.043 C 15.364 40.459,15.009 40.800,14.684 40.800 C 13.760 40.800,13.637 41.916,13.346 52.900 L 13.073 63.200 6.537 63.200 L 0.000 63.200 0.000 200.800 L 0.000 338.400 6.536 338.400 L 13.072 338.400 13.335 348.347 C 13.632 359.547,13.764 360.645,14.843 360.927 C 15.259 361.036,15.600 361.389,15.600 361.713 C 15.600 362.607,17.245 362.784,28.205 363.066 L 38.276 363.325 38.543 373.438 C 38.843 384.812,38.966 385.845,40.043 386.127 C 40.459 386.236,40.800 386.591,40.800 386.916 C 40.800 387.840,41.916 387.963,52.900 388.254 L 63.200 388.527 63.200 394.263 L 63.200 400.000 200.800 400.000 L 338.400 400.000 338.400 394.264 L 338.400 388.528 348.347 388.265 C 359.547 387.968,360.645 387.836,360.927 386.757 C 361.036 386.341,361.389 386.000,361.713 386.000 C 362.601 386.000,362.766 384.461,363.057 373.437 L 363.324 363.324 373.437 363.057 C 384.812 362.757,385.845 362.634,386.127 361.557 C 386.236 361.141,386.589 360.800,386.913 360.800 C 387.803 360.800,387.977 359.194,388.265 348.347 L 388.528 338.400 394.264 338.400 L 400.000 338.400 400.000 200.800 L 400.000 63.200 394.263 63.200 L 388.527 63.200 388.254 52.900 C 387.963 41.916,387.840 40.800,386.916 40.800 C 386.591 40.800,386.236 40.459,386.127 40.043 C 385.845 38.966,384.812 38.843,373.438 38.543 L 363.325 38.276 363.066 28.205 C 362.784 17.245,362.607 15.600,361.713 15.600 C 361.389 15.600,361.036 15.259,360.927 14.843 C 360.645 13.764,359.547 13.632,348.347 13.335 L 338.400 13.072 338.400 6.536 L 338.400 0.000 200.800 0.000 L 63.200 0.000 63.200 6.537 M268.928 37.087 C 273.952 38.084,274.536 38.290,275.328 39.340 C 276.899 41.423,285.584 49.941,286.402 50.201 C 286.841 50.340,287.200 50.600,287.200 50.778 C 287.200 50.957,287.740 51.327,288.400 51.600 C 289.060 51.873,289.600 52.255,289.600 52.449 C 289.600 52.642,289.786 52.800,290.014 52.800 C 290.242 52.800,290.878 53.205,291.428 53.700 C 293.687 55.735,294.010 56.000,294.229 56.000 C 294.524 56.000,295.600 57.074,295.600 57.368 C 295.600 57.492,296.140 58.109,296.800 58.740 C 297.460 59.371,298.000 60.092,298.000 60.343 C 298.000 60.594,298.180 60.800,298.400 60.800 C 298.620 60.800,298.800 61.070,298.800 61.400 C 298.800 61.730,298.958 62.000,299.151 62.000 C 299.345 62.000,299.727 62.540,300.000 63.200 C 300.273 63.860,300.643 64.400,300.822 64.400 C 301.000 64.400,301.256 64.748,301.391 65.173 C 301.741 66.273,310.020 74.627,311.100 74.969 C 311.595 75.126,312.000 75.400,312.000 75.578 C 312.000 75.757,312.540 76.127,313.200 76.400 C 313.860 76.673,314.400 77.055,314.400 77.249 C 314.400 77.442,314.670 77.600,315.000 77.600 C 315.330 77.600,315.600 77.780,315.600 78.000 C 315.600 78.220,315.788 78.400,316.017 78.400 C 316.434 78.400,316.979 78.784,318.429 80.100 C 318.853 80.485,319.303 80.800,319.429 80.800 C 319.725 80.800,320.800 81.875,320.800 82.171 C 320.800 82.297,321.115 82.747,321.500 83.171 C 322.816 84.621,323.200 85.166,323.200 85.583 C 323.200 85.812,323.380 86.000,323.600 86.000 C 323.820 86.000,324.000 86.270,324.000 86.600 C 324.000 86.930,324.153 87.200,324.339 87.200 C 324.526 87.200,325.021 87.962,325.439 88.893 C 326.264 90.728,335.023 99.763,336.402 100.201 C 336.841 100.340,337.200 100.600,337.200 100.778 C 337.200 100.957,337.740 101.327,338.400 101.600 C 339.060 101.873,339.600 102.255,339.600 102.449 C 339.600 102.642,339.786 102.800,340.014 102.800 C 340.242 102.800,340.878 103.205,341.428 103.700 C 343.687 105.735,344.010 106.000,344.229 106.000 C 344.524 106.000,345.600 107.074,345.600 107.368 C 345.600 107.492,346.140 108.109,346.800 108.740 C 347.460 109.371,348.000 110.092,348.000 110.343 C 348.000 110.594,348.180 110.800,348.400 110.800 C 348.620 110.800,348.800 111.070,348.800 111.400 C 348.800 111.730,348.958 112.000,349.151 112.000 C 349.345 112.000,349.727 112.540,350.000 113.200 C 350.273 113.860,350.643 114.400,350.822 114.400 C 351.000 114.400,351.256 114.748,351.391 115.173 C 351.674 116.062,360.116 124.800,360.693 124.800 C 362.356 124.800,363.352 126.778,364.458 132.276 L 365.571 137.800 365.593 200.600 L 365.615 263.400 364.556 268.800 C 363.450 274.436,362.677 275.877,360.363 276.612 C 359.944 276.745,359.600 276.996,359.600 277.170 C 359.600 277.344,357.806 279.331,355.613 281.586 C 353.421 283.841,351.518 286.027,351.386 286.443 C 351.254 286.859,351.000 287.200,350.822 287.200 C 350.643 287.200,350.273 287.740,350.000 288.400 C 349.727 289.060,349.345 289.600,349.151 289.600 C 348.958 289.600,348.800 289.786,348.800 290.014 C 348.800 290.242,348.395 290.878,347.900 291.428 C 345.865 293.687,345.600 294.010,345.600 294.229 C 345.600 294.525,344.525 295.600,344.229 295.600 C 344.010 295.600,343.687 295.865,341.428 297.900 C 340.878 298.395,340.242 298.800,340.014 298.800 C 339.786 298.800,339.600 298.958,339.600 299.151 C 339.600 299.345,339.060 299.727,338.400 300.000 C 337.740 300.273,337.200 300.643,337.200 300.822 C 337.200 301.000,336.859 301.254,336.443 301.386 C 336.027 301.518,333.841 303.421,331.586 305.613 C 329.331 307.806,327.365 309.600,327.217 309.600 C 327.068 309.600,326.431 310.680,325.800 312.000 C 325.169 313.320,324.506 314.400,324.326 314.400 C 324.147 314.400,324.000 314.670,324.000 315.000 C 324.000 315.330,323.820 315.600,323.600 315.600 C 323.380 315.600,323.200 315.788,323.200 316.017 C 323.200 316.434,322.816 316.979,321.500 318.429 C 321.115 318.853,320.800 319.303,320.800 319.429 C 320.800 319.725,319.725 320.800,319.429 320.800 C 319.303 320.800,318.853 321.115,318.429 321.500 C 316.979 322.816,316.434 323.200,316.017 323.200 C 315.788 323.200,315.600 323.360,315.600 323.557 C 315.600 323.753,315.145 324.027,314.590 324.167 C 313.248 324.504,309.058 328.732,308.151 330.664 C 307.755 331.509,307.199 332.438,306.915 332.729 C 306.632 333.019,306.400 333.397,306.400 333.567 C 306.400 333.738,306.040 334.293,305.600 334.800 C 305.160 335.307,304.800 336.027,304.800 336.400 C 304.800 336.773,304.440 337.493,304.000 338.000 C 303.560 338.507,303.200 339.317,303.200 339.800 C 303.200 340.283,302.845 341.087,302.412 341.586 C 301.978 342.086,301.516 342.834,301.385 343.248 C 301.254 343.661,300.990 344.000,300.800 344.000 C 300.610 344.000,300.343 344.349,300.208 344.776 C 299.888 345.783,295.783 349.888,294.776 350.208 C 294.349 350.343,294.000 350.610,294.000 350.800 C 294.000 350.990,293.661 351.254,293.248 351.385 C 292.834 351.516,292.086 351.978,291.586 352.412 C 291.087 352.845,290.283 353.200,289.800 353.200 C 289.317 353.200,288.507 353.560,288.000 354.000 C 287.493 354.440,286.773 354.800,286.400 354.800 C 286.027 354.800,285.307 355.160,284.800 355.600 C 284.293 356.040,283.738 356.400,283.567 356.400 C 283.397 356.400,283.019 356.632,282.729 356.915 C 282.438 357.199,281.530 357.744,280.712 358.128 C 279.893 358.512,278.156 359.858,276.851 361.119 L 274.479 363.411 268.940 364.511 L 263.400 365.610 200.600 365.590 L 137.800 365.571 132.276 364.458 C 126.778 363.352,124.800 362.356,124.800 360.693 C 124.800 360.116,116.062 351.674,115.173 351.391 C 114.748 351.256,114.400 351.000,114.400 350.822 C 114.400 350.643,113.860 350.273,113.200 350.000 C 112.540 349.727,112.000 349.345,112.000 349.151 C 112.000 348.958,111.730 348.800,111.400 348.800 C 111.070 348.800,110.800 348.620,110.800 348.400 C 110.800 348.180,110.594 348.000,110.343 348.000 C 110.092 348.000,109.371 347.460,108.740 346.800 C 108.109 346.140,107.492 345.600,107.368 345.600 C 107.074 345.600,106.000 344.524,106.000 344.229 C 106.000 344.010,105.735 343.687,103.700 341.428 C 103.205 340.878,102.800 340.242,102.800 340.014 C 102.800 339.786,102.642 339.600,102.449 339.600 C 102.255 339.600,101.873 339.060,101.600 338.400 C 101.327 337.740,100.957 337.200,100.778 337.200 C 100.600 337.200,100.340 336.841,100.201 336.402 C 99.630 334.605,89.500 325.105,87.311 324.313 C 86.590 324.053,86.000 323.695,86.000 323.520 C 86.000 323.344,85.812 323.200,85.583 323.200 C 85.166 323.200,84.621 322.816,83.171 321.500 C 82.747 321.115,82.297 320.800,82.171 320.800 C 81.875 320.800,80.800 319.725,80.800 319.429 C 80.800 319.303,80.485 318.853,80.100 318.429 C 78.784 316.979,78.400 316.434,78.400 316.017 C 78.400 315.788,78.220 315.600,78.000 315.600 C 77.780 315.600,77.600 315.330,77.600 315.000 C 77.600 314.670,77.442 314.400,77.249 314.400 C 77.055 314.400,76.673 313.860,76.400 313.200 C 76.127 312.540,75.757 312.000,75.578 312.000 C 75.400 312.000,75.126 311.595,74.969 311.100 C 74.627 310.020,66.273 301.741,65.173 301.391 C 64.748 301.256,64.400 301.000,64.400 300.822 C 64.400 300.643,63.860 300.273,63.200 300.000 C 62.540 299.727,62.000 299.345,62.000 299.151 C 62.000 298.958,61.730 298.800,61.400 298.800 C 61.070 298.800,60.800 298.620,60.800 298.400 C 60.800 298.180,60.594 298.000,60.343 298.000 C 60.092 298.000,59.371 297.460,58.740 296.800 C 58.109 296.140,57.492 295.600,57.368 295.600 C 57.074 295.600,56.000 294.524,56.000 294.229 C 56.000 294.010,55.735 293.687,53.700 291.428 C 53.205 290.878,52.800 290.242,52.800 290.014 C 52.800 289.786,52.642 289.600,52.449 289.600 C 52.255 289.600,51.873 289.060,51.600 288.400 C 51.327 287.740,50.957 287.200,50.778 287.200 C 50.600 287.200,50.340 286.841,50.201 286.402 C 49.941 285.584,41.423 276.899,39.340 275.328 C 38.290 274.536,38.084 273.952,37.087 268.928 L 35.990 263.400 36.010 200.600 L 36.029 137.800 37.142 132.276 C 38.231 126.864,39.247 124.800,40.821 124.800 C 41.370 124.800,49.930 116.051,50.193 115.221 C 50.337 114.769,50.600 114.400,50.778 114.400 C 50.957 114.400,51.327 113.860,51.600 113.200 C 51.873 112.540,52.255 112.000,52.449 112.000 C 52.642 112.000,52.800 111.730,52.800 111.400 C 52.800 111.070,52.980 110.800,53.200 110.800 C 53.420 110.800,53.600 110.594,53.600 110.343 C 53.600 110.092,54.140 109.371,54.800 108.740 C 55.460 108.109,56.000 107.492,56.000 107.368 C 56.000 107.076,57.076 106.000,57.368 106.000 C 57.492 106.000,58.109 105.460,58.740 104.800 C 59.371 104.140,60.092 103.600,60.343 103.600 C 60.594 103.600,60.800 103.420,60.800 103.200 C 60.800 102.980,61.070 102.800,61.400 102.800 C 61.730 102.800,62.000 102.642,62.000 102.449 C 62.000 102.255,62.540 101.873,63.200 101.600 C 63.860 101.327,64.400 100.957,64.400 100.778 C 64.400 100.600,64.769 100.337,65.221 100.193 C 66.260 99.864,74.675 91.425,75.006 90.380 C 75.143 89.951,75.400 89.600,75.578 89.600 C 75.757 89.600,76.127 89.060,76.400 88.400 C 76.673 87.740,77.055 87.200,77.249 87.200 C 77.442 87.200,77.600 86.930,77.600 86.600 C 77.600 86.270,77.780 86.000,78.000 86.000 C 78.220 86.000,78.400 85.812,78.400 85.583 C 78.400 85.166,78.784 84.621,80.100 83.171 C 80.485 82.747,80.800 82.297,80.800 82.171 C 80.800 81.875,81.875 80.800,82.171 80.800 C 82.297 80.800,82.747 80.485,83.171 80.100 C 84.621 78.784,85.166 78.400,85.583 78.400 C 85.812 78.400,86.000 78.220,86.000 78.000 C 86.000 77.780,86.270 77.600,86.600 77.600 C 86.930 77.600,87.200 77.442,87.200 77.249 C 87.200 77.055,87.740 76.673,88.400 76.400 C 89.060 76.127,89.600 75.757,89.600 75.578 C 89.600 75.400,89.951 75.143,90.380 75.006 C 91.425 74.675,99.864 66.260,100.193 65.221 C 100.337 64.769,100.600 64.400,100.778 64.400 C 100.957 64.400,101.327 63.860,101.600 63.200 C 101.873 62.540,102.255 62.000,102.449 62.000 C 102.642 62.000,102.800 61.730,102.800 61.400 C 102.800 61.070,102.980 60.800,103.200 60.800 C 103.420 60.800,103.600 60.594,103.600 60.343 C 103.600 60.092,104.140 59.371,104.800 58.740 C 105.460 58.109,106.000 57.492,106.000 57.368 C 106.000 57.076,107.076 56.000,107.368 56.000 C 107.492 56.000,108.109 55.460,108.740 54.800 C 109.371 54.140,110.092 53.600,110.343 53.600 C 110.594 53.600,110.800 53.420,110.800 53.200 C 110.800 52.980,111.070 52.800,111.400 52.800 C 111.730 52.800,112.000 52.642,112.000 52.449 C 112.000 52.255,112.540 51.873,113.200 51.600 C 113.860 51.327,114.400 50.957,114.400 50.778 C 114.400 50.600,114.769 50.337,115.221 50.193 C 116.051 49.930,124.800 41.370,124.800 40.821 C 124.800 39.268,126.881 38.221,132.079 37.160 L 137.400 36.074 200.400 36.032 L 263.400 35.990 268.928 37.087 M134.000 93.034 C 131.910 93.586,129.633 94.299,128.940 94.619 C 128.246 94.938,127.564 95.200,127.423 95.200 C 126.204 95.200,120.400 101.363,120.400 102.657 C 120.400 102.779,120.147 103.446,119.838 104.140 C 117.583 109.193,117.407 110.607,117.280 124.757 C 117.210 132.527,117.323 138.801,117.550 139.757 C 118.379 143.243,119.266 146.251,119.821 147.460 C 120.140 148.154,120.400 148.821,120.400 148.943 C 120.400 150.519,125.749 155.898,128.008 156.593 C 128.553 156.761,129.180 157.032,129.400 157.197 C 129.884 157.558,132.946 158.283,136.178 158.802 C 138.534 159.180,145.875 158.108,146.990 157.223 C 147.216 157.044,147.822 156.768,148.338 156.610 C 149.650 156.207,152.409 154.283,153.608 152.934 C 154.898 151.483,156.399 149.325,156.402 148.916 C 156.404 148.742,156.675 148.082,157.005 147.449 C 158.815 143.978,159.267 138.941,159.092 124.200 C 158.919 109.714,158.735 107.967,156.979 104.140 C 156.660 103.446,156.400 102.780,156.400 102.660 C 156.400 101.019,150.924 95.786,148.392 95.007 C 147.847 94.839,147.220 94.568,147.000 94.403 C 146.780 94.239,145.610 93.877,144.400 93.600 C 143.190 93.322,141.930 92.959,141.600 92.794 C 140.001 91.992,137.669 92.066,134.000 93.034 M262.200 92.187 C 261.980 92.255,260.360 92.706,258.600 93.189 C 256.840 93.672,254.833 94.322,254.140 94.634 C 253.446 94.945,252.764 95.200,252.623 95.200 C 251.251 95.200,245.200 101.280,245.200 102.660 C 245.200 102.780,244.947 103.446,244.638 104.140 C 242.383 109.193,242.207 110.607,242.080 124.757 C 242.010 132.527,242.123 138.801,242.350 139.757 C 243.179 143.243,244.066 146.251,244.621 147.460 C 244.940 148.154,245.200 148.836,245.200 148.977 C 245.200 150.349,251.280 156.400,252.660 156.400 C 252.780 156.400,253.446 156.661,254.140 156.979 C 261.999 160.593,273.269 158.714,278.408 152.934 C 279.621 151.570,281.200 149.331,281.200 148.977 C 281.200 148.836,281.460 148.154,281.779 147.460 C 282.334 146.251,283.221 143.243,284.050 139.757 C 284.277 138.801,284.390 132.527,284.320 124.757 C 284.193 110.607,284.017 109.193,281.762 104.140 C 281.453 103.446,281.200 102.780,281.200 102.660 C 281.200 102.174,278.796 98.936,277.734 97.992 C 274.763 95.350,272.770 94.390,267.418 93.020 C 263.509 92.019,263.004 91.938,262.200 92.187 M133.891 168.621 C 120.509 172.294,117.602 178.036,117.602 200.800 C 117.602 223.679,120.608 229.463,134.374 233.071 L 138.435 234.135 142.233 233.063 C 151.254 230.514,154.917 227.415,157.482 220.162 L 158.600 217.000 158.600 201.000 C 158.600 183.370,158.585 183.235,155.916 177.692 C 153.870 173.442,149.919 170.752,142.617 168.637 C 138.343 167.400,138.343 167.400,133.891 168.621 M258.852 168.632 C 245.152 172.682,242.403 178.046,242.401 200.733 C 242.400 216.574,243.029 220.070,246.887 225.647 C 250.241 230.495,259.976 234.742,265.151 233.615 C 280.561 230.257,284.001 224.256,283.999 200.733 C 283.997 178.032,281.005 172.211,267.472 168.586 C 263.031 167.396,263.035 167.396,258.852 168.632 M134.000 243.034 C 131.910 243.586,129.633 244.299,128.940 244.619 C 128.246 244.938,127.564 245.200,127.423 245.200 C 126.204 245.200,120.400 251.363,120.400 252.657 C 120.400 252.779,120.147 253.446,119.838 254.140 C 117.583 259.193,117.407 260.607,117.280 274.757 C 117.210 282.527,117.323 288.801,117.550 289.757 C 118.379 293.243,119.266 296.251,119.821 297.460 C 120.140 298.154,120.400 298.821,120.400 298.943 C 120.400 300.519,125.749 305.898,128.008 306.593 C 128.553 306.761,129.180 307.032,129.400 307.197 C 129.884 307.558,132.946 308.283,136.178 308.802 C 138.534 309.180,145.875 308.108,146.990 307.223 C 147.216 307.044,147.822 306.768,148.338 306.610 C 149.650 306.207,152.409 304.283,153.608 302.934 C 154.898 301.483,156.399 299.325,156.402 298.916 C 156.404 298.742,156.675 298.082,157.005 297.449 C 158.815 293.978,159.267 288.941,159.092 274.200 C 158.919 259.714,158.735 257.967,156.979 254.140 C 156.660 253.446,156.400 252.780,156.400 252.660 C 156.400 251.019,150.924 245.786,148.392 245.007 C 147.847 244.839,147.220 244.568,147.000 244.403 C 146.780 244.239,145.610 243.877,144.400 243.600 C 143.190 243.322,141.930 242.959,141.600 242.794 C 140.001 241.992,137.669 242.066,134.000 243.034 M262.200 242.187 C 261.980 242.255,260.360 242.706,258.600 243.189 C 256.840 243.672,254.833 244.322,254.140 244.634 C 253.446 244.945,252.764 245.200,252.623 245.200 C 251.251 245.200,245.200 251.280,245.200 252.660 C 245.200 252.780,244.947 253.446,244.638 254.140 C 242.383 259.193,242.207 260.607,242.080 274.757 C 242.010 282.527,242.123 288.801,242.350 289.757 C 243.179 293.243,244.066 296.251,244.621 297.460 C 244.940 298.154,245.200 298.836,245.200 298.977 C 245.200 300.349,251.280 306.400,252.660 306.400 C 252.780 306.400,253.446 306.661,254.140 306.979 C 261.999 310.593,273.269 308.714,278.408 302.934 C 279.621 301.570,281.200 299.331,281.200 298.977 C 281.200 298.836,281.460 298.154,281.779 297.460 C 282.334 296.251,283.221 293.243,284.050 289.757 C 284.277 288.801,284.390 282.527,284.320 274.757 C 284.193 260.607,284.017 259.193,281.762 254.140 C 281.453 253.446,281.200 252.780,281.200 252.660 C 281.200 252.174,278.796 248.936,277.734 247.992 C 274.763 245.350,272.770 244.390,267.418 243.020 C 263.509 242.019,263.004 241.938,262.200 242.187 " stroke="none" fill="#9cbc8c" fill-rule="evenodd"></path><path id="path1" d="M132.079 37.160 C 126.881 38.221,124.800 39.268,124.800 40.821 C 124.800 41.370,116.051 49.930,115.221 50.193 C 114.769 50.337,114.400 50.600,114.400 50.778 C 114.400 50.957,113.860 51.327,113.200 51.600 C 112.540 51.873,112.000 52.255,112.000 52.449 C 112.000 52.642,111.730 52.800,111.400 52.800 C 111.070 52.800,110.800 52.980,110.800 53.200 C 110.800 53.420,110.594 53.600,110.343 53.600 C 110.092 53.600,109.371 54.140,108.740 54.800 C 108.109 55.460,107.492 56.000,107.368 56.000 C 107.076 56.000,106.000 57.076,106.000 57.368 C 106.000 57.492,105.460 58.109,104.800 58.740 C 104.140 59.371,103.600 60.092,103.600 60.343 C 103.600 60.594,103.420 60.800,103.200 60.800 C 102.980 60.800,102.800 61.070,102.800 61.400 C 102.800 61.730,102.642 62.000,102.449 62.000 C 102.255 62.000,101.873 62.540,101.600 63.200 C 101.327 63.860,100.957 64.400,100.778 64.400 C 100.600 64.400,100.337 64.769,100.193 65.221 C 99.864 66.260,91.425 74.675,90.380 75.006 C 89.951 75.143,89.600 75.400,89.600 75.578 C 89.600 75.757,89.060 76.127,88.400 76.400 C 87.740 76.673,87.200 77.055,87.200 77.249 C 87.200 77.442,86.930 77.600,86.600 77.600 C 86.270 77.600,86.000 77.780,86.000 78.000 C 86.000 78.220,85.812 78.400,85.583 78.400 C 85.166 78.400,84.621 78.784,83.171 80.100 C 82.747 80.485,82.297 80.800,82.171 80.800 C 81.875 80.800,80.800 81.875,80.800 82.171 C 80.800 82.297,80.485 82.747,80.100 83.171 C 78.784 84.621,78.400 85.166,78.400 85.583 C 78.400 85.812,78.220 86.000,78.000 86.000 C 77.780 86.000,77.600 86.270,77.600 86.600 C 77.600 86.930,77.442 87.200,77.249 87.200 C 77.055 87.200,76.673 87.740,76.400 88.400 C 76.127 89.060,75.757 89.600,75.578 89.600 C 75.400 89.600,75.143 89.951,75.006 90.380 C 74.675 91.425,66.260 99.864,65.221 100.193 C 64.769 100.337,64.400 100.600,64.400 100.778 C 64.400 100.957,63.860 101.327,63.200 101.600 C 62.540 101.873,62.000 102.255,62.000 102.449 C 62.000 102.642,61.730 102.800,61.400 102.800 C 61.070 102.800,60.800 102.980,60.800 103.200 C 60.800 103.420,60.594 103.600,60.343 103.600 C 60.092 103.600,59.371 104.140,58.740 104.800 C 58.109 105.460,57.492 106.000,57.368 106.000 C 57.076 106.000,56.000 107.076,56.000 107.368 C 56.000 107.492,55.460 108.109,54.800 108.740 C 54.140 109.371,53.600 110.092,53.600 110.343 C 53.600 110.594,53.420 110.800,53.200 110.800 C 52.980 110.800,52.800 111.070,52.800 111.400 C 52.800 111.730,52.642 112.000,52.449 112.000 C 52.255 112.000,51.873 112.540,51.600 113.200 C 51.327 113.860,50.957 114.400,50.778 114.400 C 50.600 114.400,50.337 114.769,50.193 115.221 C 49.930 116.051,41.370 124.800,40.821 124.800 C 39.247 124.800,38.231 126.864,37.142 132.276 L 36.029 137.800 36.010 200.600 L 35.990 263.400 37.087 268.928 C 38.084 273.952,38.290 274.536,39.340 275.328 C 41.423 276.899,49.941 285.584,50.201 286.402 C 50.340 286.841,50.600 287.200,50.778 287.200 C 50.957 287.200,51.327 287.740,51.600 288.400 C 51.873 289.060,52.255 289.600,52.449 289.600 C 52.642 289.600,52.800 289.786,52.800 290.014 C 52.800 290.242,53.205 290.878,53.700 291.428 C 55.735 293.687,56.000 294.010,56.000 294.229 C 56.000 294.524,57.074 295.600,57.368 295.600 C 57.492 295.600,58.109 296.140,58.740 296.800 C 59.371 297.460,60.092 298.000,60.343 298.000 C 60.594 298.000,60.800 298.180,60.800 298.400 C 60.800 298.620,61.070 298.800,61.400 298.800 C 61.730 298.800,62.000 298.958,62.000 299.151 C 62.000 299.345,62.540 299.727,63.200 300.000 C 63.860 300.273,64.400 300.643,64.400 300.822 C 64.400 301.000,64.748 301.256,65.173 301.391 C 66.273 301.741,74.627 310.020,74.969 311.100 C 75.126 311.595,75.400 312.000,75.578 312.000 C 75.757 312.000,76.127 312.540,76.400 313.200 C 76.673 313.860,77.055 314.400,77.249 314.400 C 77.442 314.400,77.600 314.670,77.600 315.000 C 77.600 315.330,77.780 315.600,78.000 315.600 C 78.220 315.600,78.400 315.788,78.400 316.017 C 78.400 316.434,78.784 316.979,80.100 318.429 C 80.485 318.853,80.800 319.303,80.800 319.429 C 80.800 319.725,81.875 320.800,82.171 320.800 C 82.297 320.800,82.747 321.115,83.171 321.500 C 84.621 322.816,85.166 323.200,85.583 323.200 C 85.812 323.200,86.000 323.344,86.000 323.520 C 86.000 323.695,86.590 324.053,87.311 324.313 C 89.500 325.105,99.630 334.605,100.201 336.402 C 100.340 336.841,100.600 337.200,100.778 337.200 C 100.957 337.200,101.327 337.740,101.600 338.400 C 101.873 339.060,102.255 339.600,102.449 339.600 C 102.642 339.600,102.800 339.786,102.800 340.014 C 102.800 340.242,103.205 340.878,103.700 341.428 C 105.735 343.687,106.000 344.010,106.000 344.229 C 106.000 344.524,107.074 345.600,107.368 345.600 C 107.492 345.600,108.109 346.140,108.740 346.800 C 109.371 347.460,110.092 348.000,110.343 348.000 C 110.594 348.000,110.800 348.180,110.800 348.400 C 110.800 348.620,111.070 348.800,111.400 348.800 C 111.730 348.800,112.000 348.958,112.000 349.151 C 112.000 349.345,112.540 349.727,113.200 350.000 C 113.860 350.273,114.400 350.643,114.400 350.822 C 114.400 351.000,114.748 351.256,115.173 351.391 C 116.062 351.674,124.800 360.116,124.800 360.693 C 124.800 362.356,126.778 363.352,132.276 364.458 L 137.800 365.571 200.600 365.590 L 263.400 365.610 268.940 364.511 L 274.479 363.411 276.851 361.119 C 278.156 359.858,279.893 358.512,280.712 358.128 C 281.530 357.744,282.438 357.199,282.729 356.915 C 283.019 356.632,283.397 356.400,283.567 356.400 C 283.738 356.400,284.293 356.040,284.800 355.600 C 285.307 355.160,286.027 354.800,286.400 354.800 C 286.773 354.800,287.493 354.440,288.000 354.000 C 288.507 353.560,289.317 353.200,289.800 353.200 C 290.283 353.200,291.087 352.845,291.586 352.412 C 292.086 351.978,292.834 351.516,293.248 351.385 C 293.661 351.254,294.000 350.990,294.000 350.800 C 294.000 350.610,294.349 350.343,294.776 350.208 C 295.783 349.888,299.888 345.783,300.208 344.776 C 300.343 344.349,300.610 344.000,300.800 344.000 C 300.990 344.000,301.254 343.661,301.385 343.248 C 301.516 342.834,301.978 342.086,302.412 341.586 C 302.845 341.087,303.200 340.283,303.200 339.800 C 303.200 339.317,303.560 338.507,304.000 338.000 C 304.440 337.493,304.800 336.773,304.800 336.400 C 304.800 336.027,305.160 335.307,305.600 334.800 C 306.040 334.293,306.400 333.738,306.400 333.567 C 306.400 333.397,306.632 333.019,306.915 332.729 C 307.199 332.438,307.755 331.509,308.151 330.664 C 309.058 328.732,313.248 324.504,314.590 324.167 C 315.145 324.027,315.600 323.753,315.600 323.557 C 315.600 323.360,315.788 323.200,316.017 323.200 C 316.434 323.200,316.979 322.816,318.429 321.500 C 318.853 321.115,319.303 320.800,319.429 320.800 C 319.725 320.800,320.800 319.725,320.800 319.429 C 320.800 319.303,321.115 318.853,321.500 318.429 C 322.816 316.979,323.200 316.434,323.200 316.017 C 323.200 315.788,323.380 315.600,323.600 315.600 C 323.820 315.600,324.000 315.330,324.000 315.000 C 324.000 314.670,324.147 314.400,324.326 314.400 C 324.506 314.400,325.169 313.320,325.800 312.000 C 326.431 310.680,327.068 309.600,327.217 309.600 C 327.365 309.600,329.331 307.806,331.586 305.613 C 333.841 303.421,336.027 301.518,336.443 301.386 C 336.859 301.254,337.200 301.000,337.200 300.822 C 337.200 300.643,337.740 300.273,338.400 300.000 C 339.060 299.727,339.600 299.345,339.600 299.151 C 339.600 298.958,339.786 298.800,340.014 298.800 C 340.242 298.800,340.878 298.395,341.428 297.900 C 343.687 295.865,344.010 295.600,344.229 295.600 C 344.525 295.600,345.600 294.525,345.600 294.229 C 345.600 294.010,345.865 293.687,347.900 291.428 C 348.395 290.878,348.800 290.242,348.800 290.014 C 348.800 289.786,348.958 289.600,349.151 289.600 C 349.345 289.600,349.727 289.060,350.000 288.400 C 350.273 287.740,350.643 287.200,350.822 287.200 C 351.000 287.200,351.254 286.859,351.386 286.443 C 351.518 286.027,353.421 283.841,355.613 281.586 C 357.806 279.331,359.600 277.344,359.600 277.170 C 359.600 276.996,359.944 276.745,360.363 276.612 C 362.677 275.877,363.450 274.436,364.556 268.800 L 365.615 263.400 365.593 200.600 L 365.571 137.800 364.458 132.276 C 363.352 126.778,362.356 124.800,360.693 124.800 C 360.116 124.800,351.674 116.062,351.391 115.173 C 351.256 114.748,351.000 114.400,350.822 114.400 C 350.643 114.400,350.273 113.860,350.000 113.200 C 349.727 112.540,349.345 112.000,349.151 112.000 C 348.958 112.000,348.800 111.730,348.800 111.400 C 348.800 111.070,348.620 110.800,348.400 110.800 C 348.180 110.800,348.000 110.594,348.000 110.343 C 348.000 110.092,347.460 109.371,346.800 108.740 C 346.140 108.109,345.600 107.492,345.600 107.368 C 345.600 107.074,344.524 106.000,344.229 106.000 C 344.010 106.000,343.687 105.735,341.428 103.700 C 340.878 103.205,340.242 102.800,340.014 102.800 C 339.786 102.800,339.600 102.642,339.600 102.449 C 339.600 102.255,339.060 101.873,338.400 101.600 C 337.740 101.327,337.200 100.957,337.200 100.778 C 337.200 100.600,336.841 100.340,336.402 100.201 C 335.023 99.763,326.264 90.728,325.439 88.893 C 325.021 87.962,324.526 87.200,324.339 87.200 C 324.153 87.200,324.000 86.930,324.000 86.600 C 324.000 86.270,323.820 86.000,323.600 86.000 C 323.380 86.000,323.200 85.812,323.200 85.583 C 323.200 85.166,322.816 84.621,321.500 83.171 C 321.115 82.747,320.800 82.297,320.800 82.171 C 320.800 81.875,319.725 80.800,319.429 80.800 C 319.303 80.800,318.853 80.485,318.429 80.100 C 316.979 78.784,316.434 78.400,316.017 78.400 C 315.788 78.400,315.600 78.220,315.600 78.000 C 315.600 77.780,315.330 77.600,315.000 77.600 C 314.670 77.600,314.400 77.442,314.400 77.249 C 314.400 77.055,313.860 76.673,313.200 76.400 C 312.540 76.127,312.000 75.757,312.000 75.578 C 312.000 75.400,311.595 75.126,311.100 74.969 C 310.020 74.627,301.741 66.273,301.391 65.173 C 301.256 64.748,301.000 64.400,300.822 64.400 C 300.643 64.400,300.273 63.860,300.000 63.200 C 299.727 62.540,299.345 62.000,299.151 62.000 C 298.958 62.000,298.800 61.730,298.800 61.400 C 298.800 61.070,298.620 60.800,298.400 60.800 C 298.180 60.800,298.000 60.594,298.000 60.343 C 298.000 60.092,297.460 59.371,296.800 58.740 C 296.140 58.109,295.600 57.492,295.600 57.368 C 295.600 57.074,294.524 56.000,294.229 56.000 C 294.010 56.000,293.687 55.735,291.428 53.700 C 290.878 53.205,290.242 52.800,290.014 52.800 C 289.786 52.800,289.600 52.642,289.600 52.449 C 289.600 52.255,289.060 51.873,288.400 51.600 C 287.740 51.327,287.200 50.957,287.200 50.778 C 287.200 50.600,286.841 50.340,286.402 50.201 C 285.584 49.941,276.899 41.423,275.328 39.340 C 274.536 38.290,273.952 38.084,268.928 37.087 L 263.400 35.990 200.400 36.032 L 137.400 36.074 132.079 37.160 M141.600 92.794 C 141.930 92.959,143.190 93.322,144.400 93.600 C 145.610 93.877,146.780 94.239,147.000 94.403 C 147.220 94.568,147.847 94.839,148.392 95.007 C 150.924 95.786,156.400 101.019,156.400 102.660 C 156.400 102.780,156.660 103.446,156.979 104.140 C 160.093 110.925,160.112 141.492,157.005 147.449 C 156.675 148.082,156.404 148.742,156.402 148.916 C 156.399 149.325,154.898 151.483,153.608 152.934 C 152.409 154.283,149.650 156.207,148.338 156.610 C 147.822 156.768,147.216 157.044,146.990 157.223 C 145.875 158.108,138.534 159.180,136.178 158.802 C 132.946 158.283,129.884 157.558,129.400 157.197 C 129.180 157.032,128.553 156.761,128.008 156.593 C 125.749 155.898,120.400 150.519,120.400 148.943 C 120.400 148.821,120.140 148.154,119.821 147.460 C 119.266 146.251,118.379 143.243,117.550 139.757 C 117.323 138.801,117.210 132.527,117.280 124.757 C 117.407 110.607,117.583 109.193,119.838 104.140 C 120.147 103.446,120.400 102.779,120.400 102.657 C 120.400 101.363,126.204 95.200,127.423 95.200 C 127.564 95.200,128.246 94.938,128.940 94.619 C 133.154 92.675,139.529 91.756,141.600 92.794 M267.418 93.020 C 272.770 94.390,274.763 95.350,277.734 97.992 C 278.796 98.936,281.200 102.174,281.200 102.660 C 281.200 102.780,281.453 103.446,281.762 104.140 C 284.017 109.193,284.193 110.607,284.320 124.757 C 284.390 132.527,284.277 138.801,284.050 139.757 C 283.221 143.243,282.334 146.251,281.779 147.460 C 281.460 148.154,281.200 148.836,281.200 148.977 C 281.200 149.331,279.621 151.570,278.408 152.934 C 273.269 158.714,261.999 160.593,254.140 156.979 C 253.446 156.661,252.780 156.400,252.660 156.400 C 251.280 156.400,245.200 150.349,245.200 148.977 C 245.200 148.836,244.940 148.154,244.621 147.460 C 244.066 146.251,243.179 143.243,242.350 139.757 C 242.123 138.801,242.010 132.527,242.080 124.757 C 242.207 110.607,242.383 109.193,244.638 104.140 C 244.947 103.446,245.200 102.780,245.200 102.660 C 245.200 101.280,251.251 95.200,252.623 95.200 C 252.764 95.200,253.446 94.945,254.140 94.634 C 254.833 94.322,256.840 93.672,258.600 93.189 C 260.360 92.706,261.980 92.255,262.200 92.187 C 263.004 91.938,263.509 92.019,267.418 93.020 M142.617 168.637 C 149.919 170.752,153.870 173.442,155.916 177.692 C 158.585 183.235,158.600 183.370,158.600 201.000 L 158.600 217.000 157.482 220.162 C 154.917 227.415,151.254 230.514,142.233 233.063 L 138.435 234.135 134.374 233.071 C 120.608 229.463,117.602 223.679,117.602 200.800 C 117.602 178.036,120.509 172.294,133.891 168.621 C 138.343 167.400,138.343 167.400,142.617 168.637 M267.472 168.586 C 281.005 172.211,283.997 178.032,283.999 200.733 C 284.001 224.256,280.561 230.257,265.151 233.615 C 259.976 234.742,250.241 230.495,246.887 225.647 C 243.029 220.070,242.400 216.574,242.401 200.733 C 242.403 178.046,245.152 172.682,258.852 168.632 C 263.035 167.396,263.031 167.396,267.472 168.586 M141.600 242.794 C 141.930 242.959,143.190 243.322,144.400 243.600 C 145.610 243.877,146.780 244.239,147.000 244.403 C 147.220 244.568,147.847 244.839,148.392 245.007 C 150.924 245.786,156.400 251.019,156.400 252.660 C 156.400 252.780,156.660 253.446,156.979 254.140 C 160.093 260.925,160.112 291.492,157.005 297.449 C 156.675 298.082,156.404 298.742,156.402 298.916 C 156.399 299.325,154.898 301.483,153.608 302.934 C 152.409 304.283,149.650 306.207,148.338 306.610 C 147.822 306.768,147.216 307.044,146.990 307.223 C 145.875 308.108,138.534 309.180,136.178 308.802 C 132.946 308.283,129.884 307.558,129.400 307.197 C 129.180 307.032,128.553 306.761,128.008 306.593 C 125.749 305.898,120.400 300.519,120.400 298.943 C 120.400 298.821,120.140 298.154,119.821 297.460 C 119.266 296.251,118.379 293.243,117.550 289.757 C 117.323 288.801,117.210 282.527,117.280 274.757 C 117.407 260.607,117.583 259.193,119.838 254.140 C 120.147 253.446,120.400 252.779,120.400 252.657 C 120.400 251.363,126.204 245.200,127.423 245.200 C 127.564 245.200,128.246 244.938,128.940 244.619 C 133.154 242.675,139.529 241.756,141.600 242.794 M267.418 243.020 C 272.770 244.390,274.763 245.350,277.734 247.992 C 278.796 248.936,281.200 252.174,281.200 252.660 C 281.200 252.780,281.453 253.446,281.762 254.140 C 284.017 259.193,284.193 260.607,284.320 274.757 C 284.390 282.527,284.277 288.801,284.050 289.757 C 283.221 293.243,282.334 296.251,281.779 297.460 C 281.460 298.154,281.200 298.836,281.200 298.977 C 281.200 299.331,279.621 301.570,278.408 302.934 C 273.269 308.714,261.999 310.593,254.140 306.979 C 253.446 306.661,252.780 306.400,252.660 306.400 C 251.280 306.400,245.200 300.349,245.200 298.977 C 245.200 298.836,244.940 298.154,244.621 297.460 C 244.066 296.251,243.179 293.243,242.350 289.757 C 242.123 288.801,242.010 282.527,242.080 274.757 C 242.207 260.607,242.383 259.193,244.638 254.140 C 244.947 253.446,245.200 252.780,245.200 252.660 C 245.200 251.280,251.251 245.200,252.623 245.200 C 252.764 245.200,253.446 244.945,254.140 244.634 C 254.833 244.322,256.840 243.672,258.600 243.189 C 260.360 242.706,261.980 242.255,262.200 242.187 C 263.004 241.938,263.509 242.019,267.418 243.020 " stroke="none" fill="#bcecac" fill-rule="evenodd"></path></g></svg>